<svg width="35" height="42" viewBox="0 0 35 42" fill="none" xmlns="http://www.w3.org/2000/svg">
<path d="M16.7777 7.14844C16.7777 8.29687 16.5668 9.44531 16.3324 10.5703C15.5824 14.1797 14.8324 17.8125 14.0824 21.4219C13.8949 22.2422 13.0043 22.0547 12.3012 22.0547C9.20743 22.0547 8.34024 18.6797 8.34024 16.1484C8.34024 12.3516 9.79337 7.3125 13.3324 5.36719C13.8949 5.03906 14.5277 4.82812 15.1606 4.82812C16.6606 4.82812 16.7777 5.90625 16.7777 7.14844ZM34.4496 22.5234C34.4496 21.8672 31.7543 17.625 31.1449 17.3906C30.8637 17.2734 30.2074 17.0859 29.9027 17.0859C26.9027 17.0859 24.2309 18.4453 21.6996 19.875L21.6293 19.8047C22.1918 15.9844 23.5277 12.375 23.5277 8.46094C23.5277 2.67187 20.434 0.0234364 14.7621 0.0234364C13.9184 0.0234364 13.0981 0.0937493 12.2777 0.234372C5.1293 1.47656 0.769928 9.65625 0.769928 16.3594C0.769928 23.4609 4.89493 27.3984 11.9496 27.3984C12.0902 27.3984 12.8402 27.3047 12.8402 27.4922V27.7031C12.4652 30.5625 10.7543 37.3594 7.02774 37.3594C5.97305 37.3594 5.5043 36.6094 5.5043 35.6484C5.5043 32.4844 9.13712 30.6094 9.18399 30.4219C9.16055 29.4375 5.38712 28.1953 4.42618 28.1953C1.68399 28.1953 0.207428 32.625 0.207428 34.8984C0.207428 39.0938 2.83243 42 7.09805 42C13.3559 42 17.9262 35.4141 19.3324 29.9531C19.7309 28.3594 20.0121 26.7187 20.434 25.125C20.5277 24.7969 20.5981 24.6562 20.9262 24.4922C23.5277 23.1797 26.2231 22.3125 29.1527 22.3125C30.7699 22.3125 32.1762 22.7344 33.7699 22.9687L33.9106 22.9922C34.1449 22.9922 34.4496 22.7578 34.4496 22.5234Z" fill="white"/>
</svg>
