<svg width="50" height="49" viewBox="0 0 50 49" fill="none" xmlns="http://www.w3.org/2000/svg">
<path d="M38.3365 20.4121C38.2656 16.0821 34.9058 12.2231 30.7562 12.2231C28.3566 12.2231 26.2422 13.5359 24.85 15.4627C23.4578 13.5359 21.3434 12.2231 18.9437 12.2231C14.7942 12.2231 11.4344 16.0821 11.3635 20.4121H11.35C11.35 20.4386 11.355 20.4633 11.355 20.4898C11.355 20.5092 11.35 20.5286 11.35 20.5498C11.35 20.6715 11.3787 20.7633 11.3837 20.8797C11.755 31.9148 24.7437 36.4389 24.7437 36.4389C24.7437 36.4389 37.923 31.9201 38.3129 20.8974C38.3196 20.7738 38.35 20.6768 38.35 20.5498C38.35 20.5286 38.3449 20.5092 38.3449 20.4898C38.3449 20.4615 38.35 20.4386 38.35 20.4121H38.3365Z" fill="black"/>
<mask id="mask0_8_1257" style="mask-type:alpha" maskUnits="userSpaceOnUse" x="11" y="12" width="28" height="25">
<path d="M38.3365 20.4121C38.2656 16.0821 34.9058 12.2231 30.7562 12.2231C28.3566 12.2231 26.2422 13.5359 24.85 15.4627C23.4578 13.5359 21.3434 12.2231 18.9437 12.2231C14.7942 12.2231 11.4344 16.0821 11.3635 20.4121H11.35C11.35 20.4386 11.355 20.4633 11.355 20.4898C11.355 20.5092 11.35 20.5286 11.35 20.5498C11.35 20.6715 11.3787 20.7633 11.3837 20.8797C11.755 31.9148 24.7437 36.4389 24.7437 36.4389C24.7437 36.4389 37.923 31.9201 38.3129 20.8974C38.3196 20.7738 38.35 20.6768 38.35 20.5498C38.35 20.5286 38.3449 20.5092 38.3449 20.4898C38.3449 20.4615 38.35 20.4386 38.35 20.4121H38.3365Z" fill="white"/>
</mask>
<g mask="url(#mask0_8_1257)">
<rect x="-459.8" y="-248.769" width="810" height="807.193" fill="white"/>
</g>
</svg>
