<svg width="50" height="49" viewBox="0 0 50 49" fill="none" xmlns="http://www.w3.org/2000/svg">
<path d="M33.1144 30.3346C32.1554 30.3346 31.2602 30.6556 30.6209 31.2979L21.4793 25.9674C21.5433 25.6462 21.6073 25.3891 21.6073 25.068C21.6073 24.7468 21.5433 24.4897 21.4793 24.1686L30.4935 18.9027C31.1965 19.5449 32.0917 19.93 33.1144 19.93C35.2238 19.93 36.95 18.1958 36.95 16.0765C36.95 13.9574 35.2238 12.2231 33.1144 12.2231C31.0048 12.2231 29.2787 13.9574 29.2787 16.0766C29.2787 16.3977 29.3423 16.6549 29.4067 16.976L20.3928 22.2419C19.6895 21.5997 18.7946 21.2146 17.7717 21.2146C15.6622 21.2146 14 22.9488 14 25.0681C14 27.1873 15.7259 28.9215 17.8356 28.9215C18.8585 28.9215 19.7535 28.5364 20.4567 27.8941L29.5346 33.2247C29.4703 33.4812 29.4066 33.7384 29.4066 34.0594C29.4066 36.1148 31.0685 37.7843 33.1143 37.7843C35.16 37.7843 36.8219 36.1148 36.8219 34.0594C36.822 32.0041 35.1601 30.3346 33.1144 30.3346Z" fill="black"/>
<mask id="mask0_8_1275" style="mask-type:alpha" maskUnits="userSpaceOnUse" x="14" y="12" width="23" height="26">
<path d="M33.1144 30.3346C32.1554 30.3346 31.2602 30.6556 30.6209 31.2979L21.4793 25.9674C21.5433 25.6462 21.6073 25.3891 21.6073 25.068C21.6073 24.7468 21.5433 24.4897 21.4793 24.1686L30.4935 18.9027C31.1965 19.5449 32.0917 19.93 33.1144 19.93C35.2238 19.93 36.95 18.1958 36.95 16.0765C36.95 13.9574 35.2238 12.2231 33.1144 12.2231C31.0048 12.2231 29.2787 13.9574 29.2787 16.0766C29.2787 16.3977 29.3423 16.6549 29.4067 16.976L20.3928 22.2419C19.6895 21.5997 18.7946 21.2146 17.7717 21.2146C15.6622 21.2146 14 22.9488 14 25.0681C14 27.1873 15.7259 28.9215 17.8356 28.9215C18.8585 28.9215 19.7535 28.5364 20.4567 27.8941L29.5346 33.2247C29.4703 33.4812 29.4066 33.7384 29.4066 34.0594C29.4066 36.1148 31.0685 37.7843 33.1143 37.7843C35.16 37.7843 36.8219 36.1148 36.8219 34.0594C36.822 32.0041 35.1601 30.3346 33.1144 30.3346Z" fill="white"/>
</mask>
<g mask="url(#mask0_8_1275)">
<rect x="-459.85" y="-248.77" width="810" height="807.195" fill="white"/>
</g>
</svg>
