<svg width="49" height="49" viewBox="0 0 49 49" fill="none" xmlns="http://www.w3.org/2000/svg">
<path fill-rule="evenodd" clip-rule="evenodd" d="M25.763 33.8518H15.8522C13.1197 33.8518 10.9 31.8979 10.9 29.4646V16.6288C10.9 14.1955 13.1197 12.2231 15.8522 12.2231H32.9479C35.6803 12.2231 37.9 14.1955 37.9 16.6288V29.4646C37.9 31.8979 35.6868 33.8518 32.9479 33.8518H32.7077V37.7843C32.7077 37.7843 27.5933 34.4847 27.1455 34.1713L27.1331 34.1627C26.6975 33.8578 26.6889 33.8518 25.763 33.8518ZM33.4237 22.7615C33.4237 21.6453 32.5188 20.7435 31.3987 20.7435C30.2786 20.7435 29.3737 21.6453 29.3737 22.7615C29.3737 23.8777 30.2786 24.7795 31.3987 24.7795C32.5188 24.7795 33.4237 23.8777 33.4237 22.7615ZM24.2934 20.7435C25.4135 20.7435 26.3185 21.6453 26.3185 22.7615C26.3185 23.8777 25.4135 24.7795 24.2934 24.7795C23.1734 24.7795 22.2684 23.8777 22.2684 22.7615C22.2684 21.6453 23.1734 20.7435 24.2934 20.7435ZM19.2132 22.7615C19.2132 21.6453 18.3083 20.7435 17.1882 20.7435C16.0681 20.7435 15.1632 21.6453 15.1632 22.7615C15.1632 23.8777 16.0681 24.7795 17.1882 24.7795C18.3083 24.7795 19.2132 23.8777 19.2132 22.7615Z" fill="black"/>
<mask id="mask0_8_1262" style="mask-type:alpha" maskUnits="userSpaceOnUse" x="10" y="12" width="28" height="26">
<path fill-rule="evenodd" clip-rule="evenodd" d="M25.763 33.8518H15.8522C13.1197 33.8518 10.9 31.8979 10.9 29.4646V16.6288C10.9 14.1955 13.1197 12.2231 15.8522 12.2231H32.9479C35.6803 12.2231 37.9 14.1955 37.9 16.6288V29.4646C37.9 31.8979 35.6868 33.8518 32.9479 33.8518H32.7077V37.7843C32.7077 37.7843 27.5933 34.4847 27.1455 34.1713L27.1331 34.1627C26.6975 33.8578 26.6889 33.8518 25.763 33.8518ZM33.4237 22.7615C33.4237 21.6453 32.5188 20.7435 31.3987 20.7435C30.2786 20.7435 29.3737 21.6453 29.3737 22.7615C29.3737 23.8777 30.2786 24.7795 31.3987 24.7795C32.5188 24.7795 33.4237 23.8777 33.4237 22.7615ZM24.2934 20.7435C25.4135 20.7435 26.3185 21.6453 26.3185 22.7615C26.3185 23.8777 25.4135 24.7795 24.2934 24.7795C23.1734 24.7795 22.2684 23.8777 22.2684 22.7615C22.2684 21.6453 23.1734 20.7435 24.2934 20.7435ZM19.2132 22.7615C19.2132 21.6453 18.3083 20.7435 17.1882 20.7435C16.0681 20.7435 15.1632 21.6453 15.1632 22.7615C15.1632 23.8777 16.0681 24.7795 17.1882 24.7795C18.3083 24.7795 19.2132 23.8777 19.2132 22.7615Z" fill="white"/>
</mask>
<g mask="url(#mask0_8_1262)">
<rect x="-426.5" y="-94.0574" width="810" height="807.195" fill="white"/>
</g>
</svg>
